# xmcd CD database file
#
# Track frame offsets:
#	150
#	16540
#	34710
#	48977
#	79703
#	93948
#	116782
#	134193
#	151457
#	170781
#
# Disc length: 2690 seconds
#
# Revision: 0
# Processed by: cddbd v1.5.2PL0 Copyright (c) Steve Scherf et al.
# Submitted via: CDex 1.51
#
DISCID=7c0a800a
DTITLE=Nina Simone - Mastercuts Disc one
DYEAR=2007
DGENRE=Jazz
TTITLE0=My Baby just Cares for Me
TTITLE1=Mood Indigo
TTITLE2=He's Got The Whole World In His Hand
TTITLE3=Central Park Blues
TTITLE4=African Mailman
TTITLE5=Young, Gifted And Black
TTITLE6=Plain Gold Ring
TTITLE7=See Line Woman
TTITLE8=Little Girl Blue
TTITLE9=The House Of The Rising Sun
EXTD=YEAR: 2007
EXTT0=
EXTT1=
EXTT2=
EXTT3=
EXTT4=
EXTT5=
EXTT6=
EXTT7=
EXTT8=
EXTT9=
PLAYORDER=
